<?xml version="1.0" standalone="no"?>
<!DOCTYPE svg PUBLIC "-//W3C//DTD SVG 20010904//EN"
 "http://www.w3.org/TR/2001/REC-SVG-20010904/DTD/svg10.dtd">
<svg version="1.0" xmlns="http://www.w3.org/2000/svg"
 width="1024.000000pt" height="512.000000pt" viewBox="0 0 1024.000000 512.000000"
 preserveAspectRatio="xMidYMid meet">

<g transform="translate(0.000000,512.000000) scale(0.100000,-0.100000)"
fill="#000000" stroke="none">
<path d="M0 2560 l0 -2560 2058 0 2058 1 22 51 c27 63 21 76 -8 19 -25 -50
-34 -54 -14 -6 21 51 16 66 -7 20 -22 -45 -44 -72 -33 -40 4 11 10 25 14 30
13 18 20 46 11 40 -5 -3 -11 -2 -14 2 -2 5 -2 3 -1 -4 2 -6 -6 -29 -17 -50
-12 -23 -17 -28 -13 -13 3 14 11 30 16 37 5 7 5 14 -1 17 -5 3 -15 -10 -21
-29 -6 -19 -16 -37 -21 -41 -5 -3 0 18 11 47 30 74 19 71 -19 -6 -18 -36 -34
-65 -36 -65 -5 0 24 71 34 85 5 6 11 18 14 28 13 35 -13 6 -38 -43 -14 -27
-29 -51 -35 -55 -5 -3 2 16 15 43 34 68 31 77 -5 19 -17 -26 -33 -47 -36 -47
-3 0 3 15 15 33 21 34 43 87 37 87 -2 0 -16 -20 -30 -45 -34 -58 -40 -57 -14
1 26 59 11 79 -23 30 -22 -32 -47 -41 -65 -24 -3 4 -13 4 -22 0 -15 -5 -15 -4
1 12 16 17 23 36 12 36 -3 0 -16 -10 -28 -23 -12 -13 -16 -16 -9 -7 20 27 14
35 -10 14 -17 -14 -20 -15 -9 -2 7 9 9 23 5 29 -4 7 -3 9 4 5 6 -3 14 -1 18 5
4 8 3 9 -4 5 -15 -9 -15 -1 -2 24 8 16 7 18 -9 15 -11 -2 -25 3 -32 11 -10 13
-14 12 -30 -2 -12 -11 -19 -13 -19 -5 0 7 -4 10 -9 6 -5 -3 -13 0 -17 6 -4 8
-3 9 4 5 8 -5 11 -1 9 11 -1 10 1 18 5 18 3 0 18 11 33 25 16 15 25 19 23 10
-2 -8 3 -15 10 -16 6 -1 17 -2 23 -3 5 0 7 -6 3 -13 -4 -7 -3 -8 4 -4 6 4 9
13 6 20 -3 7 3 19 12 27 12 9 15 10 10 1 -9 -16 6 -16 24 0 12 11 12 10 2 -4
-10 -12 -10 -18 -2 -23 6 -4 14 -4 17 -1 3 3 13 0 22 -7 14 -11 14 -10 2 5
-27 36 24 61 61 30 8 -6 18 -9 22 -5 4 4 17 8 29 9 29 3 65 12 76 19 5 3 13 0
17 -6 4 -8 9 -7 15 2 7 11 9 11 9 1 0 -10 4 -9 16 2 8 9 21 13 27 9 15 -9 57
-10 57 -1 0 4 12 3 26 -2 14 -6 23 -6 20 -1 -3 5 3 11 14 14 11 3 23 1 26 -4
3 -5 11 -6 17 -2 11 7 105 13 180 13 17 0 26 4 22 10 -4 7 2 7 19 0 14 -5 26
-6 26 -2 0 4 36 8 79 9 43 1 88 6 100 12 16 9 21 9 21 -1 0 -9 2 -10 8 -2 7
11 23 14 110 17 23 1 42 6 42 11 0 4 6 3 13 -3 8 -6 17 -8 20 -4 11 10 87 9
88 -2 0 -5 4 -1 9 10 5 11 9 15 9 9 1 -11 61 -14 61 -3 0 9 55 4 62 -6 5 -6 8
-6 8 1 0 7 15 9 44 4 24 -3 51 -5 60 -4 9 1 16 -3 16 -9 0 -8 3 -8 11 0 8 8
20 8 35 3 17 -7 24 -6 24 3 0 7 3 8 8 2 9 -13 42 -15 42 -3 0 6 7 5 15 -2 15
-12 44 -15 278 -25 60 -3 117 -10 128 -15 14 -8 19 -7 19 2 0 9 3 10 8 2 4 -6
14 -12 22 -12 17 -2 180 -13 223 -15 15 -1 27 -5 27 -9 0 -4 9 -5 20 -3 11 2
20 -1 20 -7 0 -6 3 -8 7 -5 3 4 12 2 20 -4 7 -6 13 -8 13 -3 0 4 12 -3 27 -17
14 -13 23 -18 18 -10 -5 9 -3 12 6 9 8 -3 13 -11 11 -17 -2 -9 3 -9 14 -3 11
6 25 5 42 -4 14 -7 29 -11 33 -9 12 8 20 -27 9 -39 -7 -9 -2 -12 18 -11 15 1
19 0 9 -2 -9 -2 -15 -8 -13 -12 3 -4 0 -13 -6 -21 -8 -12 -8 -11 -3 5 5 15 3
17 -5 9 -9 -9 -9 -17 0 -34 11 -21 10 -22 -6 -16 -15 6 -14 2 5 -18 28 -29 18
-35 -12 -9 -19 18 -20 17 -8 -5 12 -22 11 -23 -8 -12 -15 7 -21 7 -21 0 0 -7
-6 -8 -19 0 -18 9 -19 7 -16 -28 3 -34 2 -35 -11 -18 -12 17 -14 18 -14 3 0
-20 -16 -23 -23 -4 -3 6 -6 -1 -7 -18 l-1 -30 -15 30 c-8 17 -12 22 -9 13 3
-12 -1 -18 -11 -18 -11 0 -14 -6 -9 -22 3 -14 -2 -9 -14 12 l-20 35 5 -35 c4
-31 3 -32 -6 -11 -12 28 -25 22 -15 -8 l6 -21 2030 0 2029 0 0 2560 0 2560
-5120 0 -5120 0 0 -2560z m5220 2200 c14 -11 28 -20 31 -20 14 0 281 -131 277
-136 -3 -2 -18 2 -34 11 -63 33 -240 95 -271 95 -19 0 -56 -13 -86 -30 -29
-16 -47 -30 -42 -30 6 0 25 9 44 21 22 13 42 18 58 14 29 -7 608 -289 748
-364 55 -30 161 -88 235 -129 74 -42 191 -106 260 -143 112 -60 125 -70 133
-100 6 -20 6 -147 2 -299 -12 -420 -12 -395 5 -395 10 0 19 18 27 55 l11 55 1
-42 c1 -24 5 -43 10 -43 11 0 18 41 27 165 4 55 8 111 9 125 2 14 3 62 4 108
1 75 3 82 16 68 9 -9 18 -32 20 -53 2 -21 5 -40 6 -43 0 -3 0 -15 -1 -28 l-1
-22 399 2 c220 2 398 0 396 -3 -2 -3 -162 -9 -356 -13 -369 -8 -459 -14 -465
-32 -5 -14 -29 -12 337 -22 236 -7 276 -9 160 -11 -237 -3 -449 -18 -467 -33
-14 -11 -10 -14 33 -20 27 -3 168 -7 314 -9 l265 -3 -250 -6 c-333 -9 -308 -7
-301 -25 4 -11 -2 -15 -22 -17 -76 -4 174 -16 388 -19 273 -3 257 -6 -100 -17
-219 -7 -248 -10 -275 -27 l-29 -20 369 -4 370 -4 -280 -13 c-154 -7 -293 -15
-310 -18 -16 -2 -37 -5 -45 -6 -11 -1 -11 -3 -2 -7 6 -2 10 -8 7 -12 -8 -14
120 -21 359 -21 126 0 227 -2 225 -5 -3 -2 -106 -5 -230 -5 -123 0 -264 -3
-313 -7 -87 -6 -88 -6 -66 -23 20 -15 64 -19 339 -26 l316 -9 -255 -7 c-277
-7 -303 -10 -327 -30 -14 -11 -10 -14 33 -20 27 -3 161 -7 298 -7 137 -1 247
-3 245 -5 -2 -2 -141 -6 -308 -9 -293 -6 -351 -12 -313 -36 13 -8 214 -20 382
-22 l85 -2 -80 -9 c-44 -5 -112 -6 -151 -3 -78 6 -192 -4 -174 -15 7 -4 -13
-11 -44 -14 -37 -5 -56 -12 -56 -21 0 -7 -6 -16 -12 -18 -7 -3 22 -6 64 -6 42
-1 80 -5 83 -11 4 -6 -19 -10 -63 -10 -50 0 -73 -4 -82 -15 -7 -8 -9 -15 -4
-16 5 -1 -2 -5 -16 -9 -16 -6 20 -8 97 -7 67 1 124 -1 128 -5 3 -3 -41 -9 -99
-13 -95 -7 -106 -9 -106 -26 0 -11 3 -18 8 -18 4 1 113 0 242 -1 187 -3 218
-5 150 -11 -47 -4 -161 -7 -255 -8 -207 -1 -305 -10 -305 -26 0 -6 6 -13 13
-15 6 -1 147 -6 312 -9 165 -4 266 -8 225 -9 -404 -13 -550 -22 -550 -34 0 -5
-4 -7 -9 -3 -5 3 -12 1 -16 -5 -7 -11 90 -14 340 -12 83 1 177 -2 210 -7 44
-6 -17 -9 -220 -10 -185 -1 -275 -5 -265 -11 12 -7 8 -10 -14 -10 -28 0 -29
-1 -10 -15 16 -12 78 -15 359 -16 322 -3 330 -3 150 -10 -104 -3 -274 -7 -377
-8 -170 -1 -190 -3 -207 -20 -18 -18 -18 -19 18 -25 20 -3 178 -7 351 -8 l315
-2 -320 -8 c-176 -4 -328 -8 -338 -9 -9 0 -15 -4 -12 -10 4 -5 1 -9 -6 -9 -8
0 -9 -3 -4 -9 15 -14 112 -20 345 -23 l215 -2 -270 -7 c-148 -3 -303 -7 -342
-8 -56 -1 -73 -4 -73 -15 0 -8 -6 -17 -12 -19 -16 -7 16 -8 367 -16 l280 -7
-281 -2 c-274 -2 -344 -6 -344 -22 0 -17 71 -23 390 -29 l335 -7 -315 -3
c-300 -3 -421 -9 -537 -29 l-52 -8 16 30 c9 17 24 42 33 56 49 71 190 383 190
421 0 6 -12 -3 -26 -18 -20 -22 -24 -24 -19 -8 4 11 9 37 12 59 6 36 5 38 -14
28 -11 -6 -27 -28 -36 -49 -9 -21 -37 -89 -63 -151 -87 -210 -226 -420 -404
-606 -165 -173 -167 -176 -95 -131 33 21 89 65 124 99 l65 61 -67 -73 c-66
-72 -84 -102 -49 -83 25 14 167 163 251 264 l72 87 422 -2 422 -2 -280 -7
c-154 -3 -338 -8 -410 -9 -71 -2 -111 -5 -87 -7 23 -2 42 -9 42 -15 0 -24 -36
-86 -70 -118 -20 -19 -41 -47 -48 -62 -6 -16 -16 -28 -22 -28 -5 0 -10 -10
-11 -22 0 -13 -3 -18 -5 -11 -7 17 -49 -22 -64 -58 -7 -16 -15 -27 -19 -25 -4
3 -12 -8 -19 -23 -7 -15 -28 -45 -47 -67 -19 -21 -35 -42 -35 -45 0 -4 -13
-21 -30 -39 -16 -18 -27 -36 -24 -41 3 -5 1 -9 -5 -9 -6 0 -25 -13 -43 -29
-18 -16 -53 -39 -78 -52 -25 -13 -48 -28 -52 -33 -4 -6 -8 -7 -8 -2 0 5 -7 3
-16 -5 -21 -17 -150 -69 -173 -69 -9 0 -26 -7 -37 -15 -10 -8 -26 -15 -34 -15
-8 0 -28 -7 -44 -15 -16 -8 -43 -18 -60 -21 -17 -3 -56 -11 -86 -19 -98 -25
-124 -29 -180 -30 -60 0 -92 6 -101 18 -3 4 -24 8 -46 10 -23 1 -39 5 -36 9 2
5 -6 8 -19 8 -13 0 -48 9 -78 21 -30 11 -64 21 -75 23 -11 1 -49 17 -85 34
-36 18 -70 32 -76 32 -6 0 -17 7 -24 15 -7 9 -27 22 -45 31 -18 8 -82 64 -142
124 -135 134 -123 123 -175 173 -52 51 -98 106 -98 117 0 4 -7 10 -15 14 -8 3
-15 13 -15 22 0 10 -3 15 -6 11 -7 -7 -54 46 -54 61 0 6 -9 14 -20 17 -25 8
-45 43 -41 73 1 12 -3 22 -9 22 -7 0 -2 9 11 20 l24 19 -110 2 c-60 1 -229 5
-375 8 l-265 7 377 2 c282 2 377 5 380 14 3 7 19 -10 38 -38 18 -27 52 -69 74
-94 23 -25 65 -74 95 -108 85 -100 309 -282 345 -282 9 0 16 -6 16 -13 0 -12
79 -77 93 -77 3 0 45 -25 93 -56 49 -30 148 -85 219 -120 103 -52 136 -64 160
-59 78 15 458 222 427 233 -7 2 -46 -15 -87 -38 -41 -23 -75 -39 -75 -37 0 3
30 23 68 46 37 22 101 73 142 112 41 40 57 59 35 42 -56 -41 -266 -155 -403
-218 l-114 -53 -53 24 c-388 171 -701 408 -918 693 -90 118 -120 167 -112 181
4 6 1 9 -6 8 -14 -3 -131 219 -169 318 -20 54 -34 73 -52 74 -4 0 -2 -15 3
-32 11 -40 12 -57 1 -43 -4 6 -15 16 -25 24 -15 12 -17 12 -13 0 3 -8 14 -44
25 -81 21 -70 93 -221 154 -323 l35 -60 -30 -3 c-17 -2 -67 1 -111 7 -44 6
-184 12 -311 13 l-231 2 272 6 c150 3 275 9 279 13 4 4 -9 14 -29 22 -28 12
-79 15 -223 15 -103 0 -185 3 -181 6 3 3 90 8 194 10 245 5 243 5 206 35 -12
11 -85 15 -332 20 -314 5 -315 5 -101 8 182 3 376 15 318 20 -10 0 -18 8 -18
16 0 8 -1 16 -2 17 -2 0 -113 4 -248 8 l-245 6 258 2 c266 2 282 5 233 41 -16
12 -86 15 -365 18 -190 2 -353 6 -361 7 -8 2 128 4 302 5 220 1 319 4 324 12
3 6 1 15 -6 19 -9 6 -4 10 16 13 16 2 -47 5 -141 6 -262 4 -310 18 -66 20 112
0 202 3 199 6 -2 3 -16 6 -31 7 -14 1 -25 7 -24 12 3 18 -82 24 -333 27 l-245
3 270 7 c337 8 310 6 296 23 -19 23 -143 36 -347 36 -109 0 -195 2 -193 5 3 2
107 5 231 5 164 1 236 5 264 15 35 13 36 14 12 15 -16 0 -28 5 -28 11 0 8 -17
10 -52 7 -29 -3 -75 -2 -103 2 -39 6 -22 8 72 9 128 1 153 5 153 26 0 14 -52
25 -122 25 -26 0 -50 5 -53 10 -4 6 26 10 82 10 52 0 83 4 75 9 -11 6 -10 10
5 16 12 5 -8 12 -67 22 -47 7 -96 16 -110 20 -14 3 -52 7 -85 10 -99 8 -89 23
16 23 64 0 101 4 114 13 11 9 14 16 8 20 -6 4 -107 10 -224 14 l-214 8 237 5
c242 5 280 12 250 43 -10 9 -81 13 -265 16 -325 5 -265 20 86 20 221 1 257 3
257 16 0 8 -6 15 -12 16 -7 0 -24 3 -38 6 -14 3 -146 8 -295 12 -241 6 -252 7
-104 9 255 3 412 13 399 26 -22 22 -100 36 -215 37 -66 1 -174 5 -240 9 -91 5
-41 7 202 8 215 1 324 6 328 13 4 6 -3 13 -15 16 -16 4 -18 8 -8 14 7 5 -26 9
-82 9 -138 1 -464 12 -469 16 -2 2 112 4 255 5 258 1 331 7 289 22 -16 7 -17
10 -5 17 10 7 -4 10 -45 11 -33 1 -134 5 -225 9 l-165 6 185 2 c135 2 192 6
212 16 17 9 30 10 36 4 6 -6 12 -6 17 1 10 17 -36 28 -150 36 -155 10 -230 17
-234 21 -2 2 95 4 216 4 175 0 223 3 232 14 20 24 -23 29 -304 36 l-270 6 286
2 c241 2 289 4 299 17 10 12 9 15 -6 15 -18 1 -18 1 0 15 22 17 35 12 34 -13
-2 -40 24 -310 33 -337 10 -36 5 107 -10 260 -11 112 -14 390 -5 447 6 33 13
40 73 72 36 19 75 46 85 60 10 14 23 26 28 26 13 0 109 66 143 99 17 16 58 42
92 59 34 16 59 33 56 36 -4 3 1 6 9 6 9 0 21 7 28 15 7 8 21 15 31 15 11 0 19
5 19 10 0 6 6 10 14 10 7 0 26 7 42 14 15 8 31 13 36 10 4 -3 11 2 14 10 3 9
12 16 19 16 16 0 97 41 108 55 6 6 10 6 14 -2 2 -7 9 -13 14 -13 6 0 7 5 4 10
-4 6 5 10 19 10 14 0 26 4 26 8 0 4 26 16 58 27 31 10 68 26 82 35 29 19 118
46 139 42 7 -2 10 1 7 6 -3 5 2 9 12 9 23 -1 137 52 262 119 33 18 40 17 70
-6z m345 -178 c-3 -3 -11 0 -18 7 -9 10 -8 11 6 5 10 -3 15 -9 12 -12z m-2175
-1606 c28 -35 -11 -93 -47 -70 -24 15 -28 48 -8 68 20 20 39 20 55 2z m3664
-5 c21 -23 14 -56 -16 -72 -42 -22 -82 56 -40 80 25 15 37 13 56 -8z m-4220
-7 c19 -18 19 -20 6 -45 -18 -33 -70 -18 -70 21 0 19 19 40 36 40 7 0 20 -7
28 -16z m4547 0 c14 -17 5 -40 -24 -58 -25 -16 -58 21 -46 52 10 26 50 30 70
6z m-4213 -31 c-21 -2 -57 -2 -80 0 -24 2 -7 4 37 4 44 0 63 -2 43 -4z m3970
0 c-10 -2 -28 -2 -40 0 -13 2 -5 4 17 4 22 1 32 -1 23 -4z m-1932 -1458 c-11
-8 -22 -12 -25 -9 -6 6 19 24 34 24 6 -1 1 -7 -9 -15z m1099 -345 c21 -41 57
-124 80 -186 24 -61 55 -135 69 -164 14 -30 26 -55 26 -57 0 -2 -21 -3 -46 -1
-48 3 -51 5 -76 62 l-13 29 -88 -2 -88 -2 6 28 c4 15 8 34 11 41 2 8 24 12 64
12 33 0 60 4 60 10 0 13 -60 163 -68 172 -7 7 -75 -151 -113 -259 -30 -88 -34
-93 -77 -86 -20 3 -39 7 -41 9 -4 4 38 124 49 139 4 6 21 44 38 85 16 41 56
129 87 195 l58 120 12 -35 c7 -19 29 -69 50 -110z m-2903 96 c44 -13 118 -63
118 -79 0 -4 -12 -19 -27 -31 -27 -23 -28 -23 -51 -6 -58 46 -136 46 -194 0
-60 -46 -77 -158 -35 -221 38 -56 84 -82 140 -76 27 2 61 13 77 25 l28 21 35
-32 36 -32 -36 -23 c-109 -72 -232 -65 -319 18 -136 128 -84 372 92 435 50 18
80 18 136 1z m978 8 c0 -3 -9 -18 -19 -33 -10 -14 -47 -81 -80 -148 -34 -67
-66 -125 -71 -128 -6 -4 -10 -49 -10 -101 l0 -94 -40 0 -40 0 0 96 0 96 -90
150 c-49 82 -90 151 -90 154 0 2 20 4 45 4 l46 0 59 -92 c33 -51 60 -99 60
-105 0 -29 18 -6 72 92 53 95 61 104 90 108 58 7 68 7 68 1z m299 -27 c68 -34
86 -65 86 -150 0 -60 -4 -78 -24 -106 -34 -47 -91 -71 -173 -71 l-68 0 0 -75
0 -75 -44 0 -44 0 -4 161 c-1 89 -1 203 0 255 l4 94 111 -6 c88 -4 122 -10
156 -27z m475 25 c3 -5 3 -25 -1 -45 l-6 -37 -63 0 c-51 0 -63 -3 -67 -17 -2
-10 -2 -105 1 -210 l5 -193 -46 0 -47 0 0 210 0 210 -75 0 -75 0 0 45 0 45
184 0 c102 0 187 -4 190 -8z m318 -12 c61 -23 129 -86 153 -142 50 -122 -32
-298 -161 -342 -59 -20 -77 -20 -143 0 -106 31 -181 135 -181 252 0 101 54
186 144 228 62 29 119 30 188 4z m453 0 c69 -32 70 -34 49 -69 -21 -36 -22
-36 -60 -16 -39 20 -103 19 -126 -2 -45 -40 -10 -85 92 -118 31 -10 69 -32 88
-51 27 -27 32 -39 32 -82 0 -92 -72 -162 -166 -162 -58 0 -88 9 -152 47 l-44
25 24 16 c12 9 29 24 36 34 13 17 15 17 46 -7 65 -49 143 -41 167 17 10 26 10
32 -7 49 -11 11 -51 31 -89 44 -102 37 -135 76 -135 158 0 109 131 172 245
117z m-2101 -2 c53 -16 113 -76 122 -122 11 -62 -3 -104 -52 -152 l-45 -44 55
-90 55 -90 -48 0 -49 0 -49 83 -50 82 -51 3 -52 3 0 -80 0 -80 -34 -7 c-19 -3
-39 -3 -45 1 -7 4 -11 90 -11 256 l0 249 106 0 c59 0 125 -6 148 -12z m2986
-34 l0 -45 -110 3 -110 3 0 -61 0 -61 61 -7 c34 -3 77 -6 95 -6 26 0 34 -4 34
-17 0 -10 3 -28 6 -40 6 -23 5 -23 -95 -23 l-101 0 0 -99 0 -99 -37 -5 c-21
-2 -41 -2 -45 0 -5 2 -8 116 -8 254 l0 249 155 0 155 0 0 -46z m370 6 l0 -40
-82 -1 c-46 -1 -98 -1 -115 0 l-33 3 0 -60 c0 -71 1 -72 128 -72 l82 0 0 -40
0 -40 -110 0 -110 0 0 -27 c0 -16 3 -45 6 -65 l7 -38 108 0 109 0 0 -40 0 -40
-139 0 c-77 0 -146 -3 -155 -6 -14 -6 -16 21 -16 250 l0 256 160 0 160 0 0
-40z m-3530 -924 c0 -2 -8 -10 -17 -17 -16 -13 -17 -12 -4 4 13 16 21 21 21
13z m34 -37 c-2 -4 -12 -6 -22 -4 -9 1 -28 -7 -42 -19 l-25 -21 24 27 c13 15
28 25 33 22 4 -3 11 2 14 11 5 13 9 14 15 4 4 -7 6 -16 3 -20z m109 -2 c4 3 7
1 7 -5 0 -6 -6 -14 -12 -19 -19 -11 -78 -11 -85 0 -3 6 -1 7 5 3 6 -4 19 5 28
19 15 23 18 24 34 10 9 -8 20 -12 23 -8z m-143 -21 c0 -2 -8 -10 -17 -17 -16
-13 -17 -12 -4 4 13 16 21 21 21 13z m124 -47 c-12 -13 -21 -16 -27 -10 -14
14 10 41 29 34 13 -5 12 -8 -2 -24z m-74 5 c0 -8 -19 -13 -24 -6 -3 5 1 9 9 9
8 0 15 -2 15 -3z m240 -24 c-6 -12 -14 -20 -17 -17 -2 3 1 14 8 26 17 26 24
19 9 -9z m2410 -45 c7 -9 8 -15 2 -15 -5 0 -12 7 -16 15 -3 8 -4 15 -2 15 2 0
9 -7 16 -15z m80 -15 c0 -5 -2 -10 -4 -10 -3 0 -8 5 -11 10 -3 6 -1 10 4 10 6
0 11 -4 11 -10z m-2552 -40 c-7 -10 -14 -17 -17 -15 -4 4 18 35 25 35 2 0 -1
-9 -8 -20z m35 5 c-3 -9 -8 -14 -10 -11 -3 3 -2 9 2 15 9 16 15 13 8 -4z"/>
<path d="M4910 4573 c-85 -41 -188 -91 -228 -110 -41 -19 -72 -36 -69 -39 2
-2 40 13 83 34 43 22 149 73 234 115 85 41 151 75 145 76 -5 0 -80 -34 -165
-76z"/>
<path d="M5050 4459 c-69 -34 -136 -65 -149 -70 -13 -5 -21 -12 -18 -15 3 -3
28 7 57 21 29 14 54 25 56 22 2 -2 -136 -72 -306 -156 -171 -83 -365 -184
-433 -223 -145 -84 -144 -83 -135 -74 23 27 203 127 445 249 155 78 280 143
278 145 -4 5 -457 -222 -565 -283 -109 -61 -189 -109 -265 -157 l-61 -38 3
-216 c1 -120 7 -254 13 -298 16 -123 32 -196 40 -191 4 3 11 -6 14 -20 4 -14
18 -51 32 -81 19 -42 26 -75 27 -129 1 -42 6 -68 10 -61 5 6 6 0 3 -16 -6 -28
1 -61 13 -54 3 2 6 -9 7 -25 2 -42 103 -240 193 -376 76 -114 192 -253 212
-253 6 0 7 6 3 13 -5 8 -3 8 9 -2 9 -7 15 -17 12 -21 -8 -14 200 -183 317
-259 39 -25 72 -40 79 -35 7 4 9 3 6 -3 -8 -13 50 -46 69 -39 8 3 13 2 10 -3
-3 -4 31 -25 75 -46 l80 -37 65 27 c82 35 79 43 -4 9 -48 -19 -66 -22 -80 -14
-15 10 -15 10 3 6 11 -3 58 11 110 34 99 44 99 44 89 29 -3 -6 8 -3 25 5 17 9
31 19 31 22 0 2 -9 0 -21 -6 -11 -7 -23 -10 -25 -7 -3 3 24 22 60 43 150 88
246 164 387 304 119 117 162 169 229 270 135 204 208 371 265 605 51 204 66
322 73 580 5 154 9 209 13 165 l6 -65 1 70 2 70 -50 28 c-28 16 -50 30 -50 32
0 2 27 -8 59 -23 l59 -27 4 -65 c6 -96 -9 -399 -27 -529 -18 -136 -18 -134 -1
-95 8 17 31 44 52 60 22 16 45 37 52 47 7 9 17 15 21 13 23 -14 55 521 37 616
-7 41 -10 43 -211 148 -66 35 -149 80 -185 100 -36 21 -83 47 -105 58 l-40 20
-2 -52 c-1 -28 -3 -62 -6 -76 -2 -15 2 -30 12 -38 14 -11 13 -11 -7 -2 -12 6
-20 15 -17 20 3 5 -3 8 -12 8 -10 -1 -101 42 -203 95 -102 53 -181 97 -176 97
5 0 93 -43 195 -96 102 -52 177 -88 166 -79 -29 24 -645 328 -652 322 -3 -3
50 -31 116 -63 67 -31 120 -59 118 -60 -2 -2 -82 33 -179 79 -97 45 -175 83
-173 85 2 2 25 -6 51 -17 26 -12 49 -20 51 -18 4 5 -111 57 -123 56 -5 0 -65
-27 -134 -60z m61 6 c-40 -19 -76 -35 -80 -35 -12 1 124 69 139 69 8 0 -18
-15 -59 -34z m89 -267 c0 -163 -3 -209 -12 -206 -10 4 -14 58 -16 216 -2 186
-1 211 13 206 13 -5 15 -37 15 -216z m70 7 c0 -176 -2 -205 -15 -205 -13 0
-15 29 -15 205 0 176 2 205 15 205 13 0 15 -29 15 -205z m-142 -24 c-2 -137
-6 -185 -15 -189 -10 -3 -13 42 -13 205 1 186 2 206 16 188 12 -16 14 -53 12
-204z m222 -12 c0 -182 -1 -187 -20 -182 -19 5 -20 14 -20 188 0 101 3 191 7
201 6 16 7 16 20 -2 10 -13 13 -64 13 -205z m-289 147 c10 -86 -2 -336 -16
-336 -16 0 -25 68 -25 195 0 125 9 197 24 192 6 -2 14 -25 17 -51z m349 -162
c0 -144 -3 -185 -12 -182 -10 4 -14 50 -16 178 -3 177 0 206 18 195 6 -4 10
-78 10 -191z m-426 149 c3 -21 6 -107 6 -190 0 -125 -3 -153 -14 -153 -11 0
-15 24 -18 118 -4 146 1 262 12 262 4 0 10 -17 14 -37z m496 -179 c0 -148 -2
-174 -15 -174 -13 0 -15 27 -15 186 0 165 2 185 15 174 12 -10 15 -44 15 -186z
m-560 2 c0 -164 -6 -203 -28 -181 -10 10 -15 216 -7 290 5 46 11 65 21 65 12
0 14 -30 14 -174z m297 -18 c-2 -29 -3 -8 -3 47 0 55 1 79 3 53 2 -26 2 -71 0
-100z m-347 -32 c0 -128 -2 -144 -17 -149 -117 -38 -158 -57 -155 -73 3 -12
-1 -15 -13 -10 -9 3 -13 2 -10 -4 3 -6 1 -10 -4 -10 -6 0 -11 4 -11 8 0 4 -41
39 -90 77 -50 39 -98 80 -106 93 -15 23 -7 31 13 11 7 -7 24 -1 58 20 27 17
64 36 83 42 20 6 77 36 127 65 51 30 97 54 103 54 7 0 12 5 12 10 0 6 2 10 5
10 3 0 5 -65 5 -144z m775 -20 c-14 -20 -14 -25 -1 -35 13 -11 17 -7 24 21 8
26 11 30 17 16 18 -44 -25 -73 -58 -39 l-22 22 24 20 c31 25 35 24 16 -5z
m525 -37 c50 -27 90 -53 90 -55 0 -5 -139 68 -175 93 -44 30 1 10 85 -38z
m-1671 -61 c47 -46 103 -98 124 -116 35 -31 41 -52 14 -52 -33 0 -247 209
-247 241 0 22 28 3 109 -73z m1372 -49 c-108 -109 -141 -134 -141 -110 0 28
234 245 253 234 4 -2 -46 -58 -112 -124z m-1295 -105 c37 -29 43 -48 17 -58
-22 -9 -72 26 -163 112 -67 64 -73 73 -59 85 15 11 15 16 2 42 -10 19 18 -3
77 -63 50 -51 107 -104 126 -118z m-156 42 c74 -69 135 -131 135 -138 0 -7 -8
-14 -17 -16 -19 -4 -278 244 -278 266 0 28 32 5 160 -112z m1680 116 c0 -26
-244 -272 -270 -272 -30 0 0 39 119 152 126 120 151 140 151 120z m-1990 -6
c0 -7 -141 -89 -145 -84 -3 2 28 23 68 46 76 44 77 44 77 38z m1302 -32 c99
-31 144 -53 218 -107 108 -78 210 -193 194 -219 -4 -7 -3 -8 4 -4 14 8 36 -30
26 -46 -4 -7 -3 -8 4 -4 7 4 18 -6 27 -25 22 -41 46 -111 41 -116 -2 -2 -12
18 -21 46 -19 57 -39 80 -23 26 14 -43 -4 -74 -30 -53 -14 11 -15 10 -8 -7 25
-63 56 -214 51 -246 -5 -25 -2 -39 9 -48 14 -12 14 -16 -3 -40 -10 -14 -21
-44 -25 -66 -26 -147 -116 -295 -244 -400 -81 -67 -157 -105 -283 -139 -232
-64 -453 -2 -644 180 -22 21 -44 37 -48 36 -5 -1 -6 2 -3 7 13 20 -10 18 -37
-3 l-28 -23 25 -30 c43 -52 29 -51 -16 1 -133 150 -218 387 -203 566 17 212
103 390 257 535 40 39 103 87 138 108 177 103 428 132 622 71z m353 -49 c-41
-48 -76 -71 -74 -47 0 6 108 100 117 101 2 1 -18 -24 -43 -54z m-1359 -101
c75 -75 109 -116 104 -125 -6 -9 -35 11 -102 69 -110 95 -162 156 -154 179 8
20 15 15 152 -123z m-169 84 c25 -24 62 -59 82 -78 20 -19 67 -63 105 -97 45
-42 66 -68 62 -78 -3 -8 -10 -15 -17 -15 -9 0 -242 218 -291 273 -48 53 0 49
59 -5z m1953 13 c0 -13 -275 -274 -286 -272 -28 4 5 45 126 156 124 114 160
140 160 116z m-2069 -72 c77 -52 303 -266 307 -291 5 -26 -6 -23 -52 20 -23
20 -78 69 -121 107 -164 144 -223 205 -199 205 3 0 32 -18 65 -41z m214 -111
c122 -121 128 -129 96 -124 -25 3 -52 23 -105 75 -39 38 -97 91 -128 117 -62
50 -64 54 -46 72 18 18 42 0 183 -140z m1947 129 c-8 -25 -313 -327 -331 -327
-18 0 -12 13 27 56 43 48 299 294 306 294 2 0 1 -10 -2 -23z m-422 -1 c0 -18
-49 -66 -68 -66 -10 0 -1 14 24 40 44 45 44 45 44 26z m-1593 -230 c112 -118
140 -153 129 -163 -4 -4 -48 34 -99 83 -51 50 -113 107 -139 128 -26 20 -55
54 -64 74 -10 20 -20 41 -22 46 -17 31 104 -74 195 -168z m1955 87 c-97 -108
-227 -233 -242 -233 -7 0 58 70 145 155 86 85 159 155 162 155 3 0 -26 -35
-65 -77z m-2051 -78 c9 -11 26 -31 38 -44 21 -24 66 -150 56 -159 -5 -5 -24
40 -26 61 -1 7 -5 1 -9 -13 -7 -21 -8 -22 -9 -5 -1 11 -6 27 -11 35 -8 11 -9
7 -4 -15 8 -37 2 -31 -65 62 -39 53 -50 77 -43 88 7 14 15 9 52 -27 32 -33 38
-36 23 -13 -12 17 -30 39 -42 49 -12 11 -21 24 -21 29 0 11 34 -16 61 -48z
m160 -42 c13 -16 12 -17 -3 -4 -17 13 -22 21 -14 21 2 0 10 -8 17 -17z m-179
-71 c17 -24 28 -46 25 -48 -3 -3 -26 26 -52 63 -26 37 -37 59 -25 48 12 -11
36 -39 52 -63z m114 21 c-3 -3 6 -30 20 -60 13 -31 24 -58 24 -62 -1 -10 -41
70 -56 111 -12 36 -12 39 1 28 9 -7 13 -15 11 -17z m1692 -198 c0 -16 -2 -15
-8 5 -11 34 -11 60 0 35 5 -11 8 -29 8 -40z m-1590 13 c3 -17 -9 -18 -143 -18
-140 0 -193 9 -180 31 4 6 69 8 163 7 140 -3 157 -5 160 -20z m1962 1 c0 -15
-4 -19 -16 -15 -9 3 -30 7 -47 8 -27 1 -25 2 13 9 25 4 -28 5 -117 2 -118 -4
-163 -2 -163 6 0 8 49 11 165 11 161 0 165 0 165 -21z m-376 -338 c-23 -106
-111 -274 -186 -355 -63 -70 -190 -160 -273 -196 -80 -34 -204 -60 -290 -60
-83 0 -250 30 -282 50 -17 11 -17 11 2 5 11 -4 72 -16 135 -27 100 -18 127
-19 210 -10 145 17 248 58 385 152 67 46 123 108 178 199 92 149 125 265 129
449 l2 97 4 -115 c2 -81 -2 -137 -14 -189z m-1596 262 c-3 -16 -18 -18 -113
-21 -119 -3 -186 6 -193 26 -3 9 34 12 153 12 144 0 156 -1 153 -17z m1966 2
c-5 -12 -31 -15 -144 -15 -76 0 -145 3 -154 6 -44 17 -1 24 144 24 138 0 159
-2 154 -15z m-1974 -75 c0 -19 -7 -20 -145 -20 -119 0 -145 3 -145 14 0 21 19
24 163 25 121 1 127 0 127 -19z m1960 -2 c0 -11 -14 -13 -66 -10 -53 4 -65 2
-59 -8 6 -10 4 -11 -11 -4 -10 5 -49 9 -87 9 -38 0 -67 4 -67 10 0 6 57 11
145 13 119 3 145 1 145 -10z m-383 -30 c-3 -8 -6 -5 -6 6 -1 11 2 17 5 13 3
-3 4 -12 1 -19z m-1569 -50 c3 -17 -9 -18 -142 -18 -140 0 -146 1 -146 20 0
20 5 20 142 18 127 -3 143 -5 146 -20z m1904 12 c27 0 38 -4 38 -15 0 -13 -22
-15 -140 -15 -114 0 -140 3 -140 14 0 23 19 26 114 21 49 -3 106 -5 128 -5z
m-1898 -91 c5 -5 8 -11 5 -13 -2 -2 -62 -6 -132 -7 -100 -2 -131 1 -137 11 -5
8 -7 18 -4 22 6 10 256 -2 268 -13z m1916 2 c0 -13 -82 -21 -175 -17 -100 5
-104 5 -80 16 27 12 255 12 255 1z m-1896 -76 c5 -13 -14 -15 -129 -15 -113 0
-135 2 -135 15 0 13 21 15 129 15 105 0 130 -3 135 -15z m1864 -2 c3 -10 -27
-13 -130 -11 -73 0 -118 3 -99 5 26 4 31 7 20 14 -9 6 24 9 95 7 77 -2 111 -7
114 -15z m-1814 -119 c4 -11 -20 -41 -81 -100 -89 -84 -106 -94 -119 -72 -5 8
27 44 87 100 52 48 97 88 100 88 4 0 10 -7 13 -16z m1591 -91 l18 -28 -21 19
c-12 11 -22 23 -22 28 0 14 7 9 25 -19z m-1541 -9 c4 -9 2 -22 -4 -29 -5 -6
-8 -14 -5 -17 3 -3 -31 -37 -76 -77 -45 -40 -84 -70 -87 -67 -2 3 1 12 8 21
10 12 10 15 0 15 -12 0 138 167 151 169 4 1 10 -6 13 -15z m1597 -1 c13 -16
12 -17 -3 -4 -10 7 -18 15 -18 17 0 8 8 3 21 -13z m53 -79 c4 -12 2 -12 -14
-4 -11 6 -20 15 -20 20 0 14 28 1 34 -16z m-1774 1 c-7 -9 -15 -13 -17 -11 -7
7 7 26 19 26 6 0 6 -6 -2 -15z m190 -13 c0 -20 -117 -147 -163 -177 -40 -26
-57 -6 -28 31 30 38 169 164 181 164 6 0 10 -8 10 -18z m-245 -42 c-10 -11
-21 -18 -23 -15 -3 3 3 12 14 20 27 20 30 18 9 -5z m1570 -10 c10 -11 16 -20
13 -20 -3 0 -13 9 -23 20 -10 11 -16 20 -13 20 3 0 13 -9 23 -20z m-1125 -57
c0 -2 -18 10 -40 27 -22 17 -40 34 -40 37 0 2 18 -10 40 -27 22 -17 40 -34 40
-37z m1327 20 c-3 -3 -10 -2 -16 2 -7 4 -7 10 2 20 10 11 13 11 15 -2 2 -8 1
-17 -1 -20z m-1452 -3 c-12 -19 -197 -180 -207 -180 -15 0 56 87 114 140 27
25 60 47 74 48 15 1 23 -2 19 -8z m36 -49 c-13 -24 -3 -34 18 -18 9 6 -22 -30
-68 -81 -83 -92 -111 -118 -97 -91 4 8 -2 3 -13 -11 -11 -14 -21 -19 -21 -12
0 7 17 31 38 55 21 23 51 60 66 82 30 41 77 95 83 95 2 0 -1 -8 -6 -19z m235
-49 c-5 -4 -86 36 -86 43 0 3 20 -5 45 -17 24 -12 43 -23 41 -26z m864 -7 c11
7 139 -123 140 -140 0 -5 -30 21 -65 58 -36 37 -70 65 -75 62 -5 -3 -24 8 -42
26 l-33 31 32 -22 c18 -12 37 -18 43 -15z m195 -45 c30 -33 -5 -35 -37 -2
l-30 30 25 -5 c14 -3 33 -13 42 -23z m-1035 -236 c0 -106 -3 -199 -6 -208 -18
-47 -24 5 -24 212 1 202 2 225 15 208 12 -16 15 -59 15 -212z m812 193 c5 -10
14 -14 20 -11 7 4 8 2 4 -4 -8 -13 -35 -3 -55 22 -10 12 -9 14 5 12 9 -1 21
-10 26 -19z m-748 -28 c3 -17 6 -123 6 -235 0 -177 -2 -203 -15 -198 -13 5
-15 41 -15 235 0 211 8 277 24 198z m496 -173 c0 -196 -10 -268 -24 -169 -8
59 -8 336 0 357 18 46 24 -3 24 -188z m-850 191 c0 -2 -12 -14 -27 -28 l-28
-24 24 28 c23 25 31 32 31 24z m420 -342 c-5 -137 -6 -144 -12 -80 -10 91 -10
409 0 419 11 12 18 -171 12 -339z m290 83 c0 -146 -4 -238 -10 -238 -5 0 -10
82 -12 203 -4 240 -1 307 12 287 6 -8 10 -122 10 -252z m300 207 c0 -27 -27
-40 -46 -24 -18 15 -18 28 3 51 20 22 43 8 43 -27z m-512 -171 c3 -204 -2
-284 -19 -284 -5 0 -9 99 -9 246 0 192 3 245 13 242 9 -4 13 -56 15 -204z m62
-308 c-7 -7 -9 10 -6 54 4 48 3 56 -3 30 -5 -22 -9 43 -10 178 -1 154 2 219
12 235 10 18 12 -23 15 -232 1 -164 -1 -258 -8 -265z m80 253 c0 -159 -4 -249
-10 -249 -6 0 -10 92 -10 256 0 167 3 253 10 249 6 -4 10 -100 10 -256z m140
29 c0 -132 -4 -208 -10 -208 -6 0 -10 81 -10 223 0 147 4 217 10 207 5 -8 10
-106 10 -222z m-606 213 c4 -5 -3 -7 -14 -4 -23 6 -39 -22 -22 -39 9 -9 17 -7
32 7 19 17 20 17 14 2 -9 -25 -38 -39 -52 -25 -13 13 -16 51 -5 61 9 10 41 8
47 -2z m1007 -18 c13 -16 12 -17 -3 -4 -10 7 -18 15 -18 17 0 8 8 3 21 -13z
m-1350 -30 c13 -16 12 -17 -3 -4 -17 13 -22 21 -14 21 2 0 10 -8 17 -17z"/>
<path d="M4750 4059 c-12 -8 -10 -9 8 -4 17 5 24 1 32 -17 l10 -23 -3 25 c-2
27 -24 36 -47 19z"/>
<path d="M4812 4043 c-2 -41 -29 -58 -55 -35 -16 15 -17 15 -12 -1 4 -9 16
-19 27 -23 30 -9 50 17 45 57 l-4 34 -1 -32z"/>
<path d="M4755 4030 c4 -6 11 -8 16 -5 14 9 11 15 -7 15 -8 0 -12 -5 -9 -10z"/>
<path d="M5163 3914 c-3 -8 2 -23 11 -32 15 -15 17 -15 32 0 21 21 11 48 -16
48 -11 0 -23 -7 -27 -16z"/>
<path d="M5020 3840 c-218 -59 -365 -181 -464 -385 -48 -96 -66 -180 -66 -297
1 -123 51 -285 119 -378 17 -23 28 -48 24 -54 -3 -6 -3 -8 2 -4 4 4 38 -21 75
-55 117 -107 241 -170 370 -185 88 -10 233 1 304 24 197 64 356 209 435 397
81 195 63 439 -46 627 -78 133 -230 256 -376 302 -96 30 -280 34 -377 8z m113
-17 c-7 -2 -21 -2 -30 0 -10 3 -4 5 12 5 17 0 24 -2 18 -5z m144 1 c-3 -3 -12
-4 -19 -1 -8 3 -5 6 6 6 11 1 17 -2 13 -5z m-280 -30 c-3 -3 -12 -4 -19 -1 -8
3 -5 6 6 6 11 1 17 -2 13 -5z m-47 -14 c-8 -5 -19 -10 -25 -10 -5 0 -3 5 5 10
8 5 20 10 25 10 6 0 3 -5 -5 -10z m-40 -14 c0 -2 -7 -7 -16 -10 -8 -3 -12 -2
-9 4 6 10 25 14 25 6z m-40 -20 c0 -2 -17 -15 -38 -28 -20 -14 -64 -49 -97
-79 -33 -29 -49 -40 -35 -25 49 56 170 150 170 132z m277 -30 c-38 -12 -38
-12 30 -12 194 -1 313 -126 313 -330 0 -45 5 -68 19 -85 29 -38 68 -120 86
-184 35 -120 -1 -251 -95 -345 -180 -180 -432 -184 -612 -8 -86 83 -109 140
-111 275 -1 98 1 113 26 166 14 32 26 64 24 70 -1 7 3 11 9 10 6 -1 22 10 36
25 22 24 24 33 19 87 l-6 60 -7 -58 c-4 -32 -11 -64 -17 -71 -6 -7 -8 -15 -6
-18 6 -5 -26 -3 -55 3 -8 2 -14 -2 -12 -9 5 -24 -37 7 -54 40 -28 54 -15 113
43 199 53 78 89 111 161 148 51 26 141 48 202 48 l45 1 -38 -12z m-467 -139
c0 -2 -10 -12 -22 -23 l-23 -19 19 23 c18 21 26 27 26 19z m1060 -47 c6 -11 8
-20 6 -20 -3 0 -10 9 -16 20 -6 11 -8 20 -6 20 3 0 10 -9 16 -20z m-1147 -85
c-3 -9 -8 -14 -10 -11 -3 3 -2 9 2 15 9 16 15 13 8 -4z m-22 -52 c-12 -20 -14
-14 -5 12 4 9 9 14 11 11 3 -2 0 -13 -6 -23z m-17 -62 c-4 -17 -9 -30 -11 -27
-3 2 -2 19 2 36 9 41 17 33 9 -9z m1290 -166 c1 -133 -16 -203 -77 -320 -41
-77 -172 -209 -257 -258 -110 -64 -185 -82 -335 -82 -117 1 -137 4 -205 29
-100 38 -196 103 -268 182 -56 61 -122 168 -136 224 -4 14 11 -11 32 -55 72
-148 165 -238 327 -316 291 -141 659 -14 826 285 45 81 65 142 77 236 8 61 3
178 -12 245 -5 23 -3 21 10 -10 13 -29 17 -72 18 -160z m-1307 88 c-3 -10 -5
-4 -5 12 0 17 2 24 5 18 2 -7 2 -21 0 -30z m-10 -125 c-2 -18 -4 -4 -4 32 0
36 2 50 4 33 2 -18 2 -48 0 -65z m16 -93 c5 -28 4 -34 -3 -20 -8 19 -14 73 -6
64 2 -2 6 -22 9 -44z"/>
<path d="M4979 3633 c-13 -16 -12 -17 4 -4 9 7 17 15 17 17 0 8 -8 3 -21 -13z"/>
<path d="M4939 3593 c-13 -16 -12 -17 4 -4 16 13 21 21 13 21 -2 0 -10 -8 -17
-17z"/>
<path d="M5095 3594 c-16 -9 -38 -24 -48 -33 -23 -19 -45 -57 -28 -47 14 9 14
5 -4 -37 -8 -20 -15 -51 -15 -70 0 -18 -6 -39 -12 -47 -7 -7 3 -4 22 8 78 46
96 52 161 52 77 0 152 -20 204 -55 40 -28 58 -26 33 2 -15 17 -35 97 -29 117
5 22 -24 67 -62 93 -34 24 -52 28 -116 31 -56 2 -84 -2 -106 -14z m163 -9 c48
-15 112 -64 112 -87 0 -6 -9 1 -21 16 -25 31 -80 62 -130 71 -45 8 -105 -8
-153 -40 -20 -13 -36 -20 -36 -15 0 12 48 45 85 58 43 15 84 14 143 -3z"/>
<path d="M4996 3485 c-9 -26 -7 -32 5 -12 6 10 9 21 6 23 -2 3 -7 -2 -11 -11z"/>
<path d="M5234 3368 c-4 -7 -3 -8 4 -4 7 4 12 3 12 -1 0 -5 32 -17 70 -27 39
-10 68 -22 64 -27 -3 -5 3 -9 12 -9 24 0 93 -75 128 -139 32 -59 47 -164 28
-197 -9 -15 -12 -2 -13 61 -1 55 -4 71 -8 50 -7 -27 -8 -25 -15 25 -5 36 -19
73 -42 108 -30 45 -46 58 -118 93 -60 28 -101 42 -143 45 l-58 4 62 -14 c85
-20 126 -41 189 -99 59 -54 81 -101 58 -128 -8 -8 -14 -20 -14 -25 0 -5 -10
-17 -23 -27 -150 -118 -137 -103 -137 -163 l0 -54 -77 -2 c-43 -1 -90 -2 -105
-2 -14 -1 -25 -3 -23 -5 5 -4 -26 -36 -37 -37 -4 -1 -15 -2 -24 -3 -14 -1 -15
-3 -3 -18 16 -21 -14 2 -69 52 -90 81 -114 244 -51 354 32 56 120 121 192 142
34 10 51 18 37 18 -14 0 -43 -7 -65 -15 -22 -9 -48 -17 -58 -18 -45 -6 -137
-112 -137 -158 0 -10 -5 -18 -11 -18 -6 0 -9 -8 -6 -19 2 -10 1 -42 -4 -72 -6
-37 -5 -67 5 -99 7 -25 11 -50 9 -56 -6 -19 103 -119 168 -154 178 -94 408
-11 508 184 13 25 26 44 29 41 11 -10 -56 -123 -98 -166 -25 -25 -77 -61 -115
-80 -65 -31 -77 -34 -165 -34 -85 0 -101 3 -155 29 -69 34 -156 113 -190 171
-31 53 -48 116 -35 129 6 6 10 24 10 41 0 55 29 145 66 202 43 67 38 82 -7 21
-65 -88 -84 -143 -84 -248 0 -85 3 -101 29 -155 40 -80 111 -149 194 -188 61
-29 75 -32 167 -32 87 0 107 3 155 26 241 114 320 354 185 564 -35 55 -93 113
-82 83 4 -10 4 -18 2 -18 -14 0 -105 45 -105 51 0 8 -64 29 -87 29 -6 0 -15
-5 -19 -12z m292 -410 c-4 -24 -19 -61 -34 -83 -57 -82 -203 -155 -310 -155
-58 0 -52 7 13 13 109 11 177 40 249 106 41 39 76 107 76 148 0 15 3 24 6 20
4 -3 3 -25 0 -49z m-456 -208 c8 -5 11 -10 5 -10 -5 0 -17 5 -25 10 -8 5 -10
10 -5 10 6 0 17 -5 25 -10z"/>
<path d="M5181 3301 c-7 -5 -11 -13 -7 -19 8 -13 48 -3 43 11 -5 15 -20 18
-36 8z"/>
<path d="M5130 3178 c-37 -19 -47 -30 -54 -61 -6 -23 -6 -48 0 -64 8 -22 17
-31 53 -50 3 -2 -12 -77 -26 -125 -4 -16 5 -18 81 -18 96 0 92 -4 74 80 -10
52 -10 59 10 86 11 16 24 45 27 65 6 31 2 41 -22 68 -38 43 -84 49 -143 19z
m117 -17 c30 -19 51 -56 39 -68 -3 -4 -6 1 -6 9 0 9 -14 28 -32 43 -62 52
-144 12 -150 -74 -2 -36 -4 -40 -9 -20 -10 45 12 92 51 111 45 23 68 22 107
-1z"/>
<path d="M4821 2989 c-1 -18 20 -82 25 -77 2 2 -3 24 -11 48 -7 25 -14 38 -14
29z"/>
<path d="M4415 3159 c-9 -26 16 -55 40 -45 25 9 16 60 -12 64 -15 2 -23 -3
-28 -19z"/>
<path d="M4136 3555 c21 -27 40 -52 41 -54 2 -2 3 1 3 8 0 6 -18 31 -41 54
l-41 42 38 -50z"/>
<path d="M4206 3505 c24 -39 24 -40 24 -28 0 6 -9 21 -21 34 l-20 24 17 -30z"/>
<path d="M6228 3243 c12 -2 30 -2 40 0 9 3 -1 5 -23 4 -22 0 -30 -2 -17 -4z"/>
<path d="M5595 2290 c-9 -15 16 -43 27 -32 10 10 0 42 -12 42 -5 0 -12 -5 -15
-10z"/>
<path d="M3747 3864 c-13 -272 3 -547 36 -624 14 -32 15 2 13 357 0 216 -4
393 -8 393 -5 0 -9 -15 -9 -32 l-2 -33 -4 30 c-10 71 -20 36 -26 -91z"/>
<path d="M6685 3679 c-4 -6 -5 -12 -2 -15 2 -3 7 2 10 11 7 17 1 20 -8 4z"/>
<path d="M6403 3535 c0 -38 2 -53 4 -32 2 20 2 52 0 70 -2 17 -4 1 -4 -38z"/>
<path d="M6326 2930 c-61 -206 -163 -408 -294 -582 -136 -180 -349 -376 -526
-483 -108 -65 -294 -155 -320 -155 -32 0 -270 120 -371 187 -186 123 -344 263
-460 408 -22 28 -43 52 -48 53 -4 2 -5 7 -3 11 3 4 -4 12 -14 19 -16 10 -18 9
-14 -3 5 -13 -17 -22 -29 -12 -11 7 -37 -29 -37 -50 0 -13 -4 -22 -10 -18 -5
3 -6 13 -3 23 3 9 2 14 -2 9 -5 -4 -18 1 -29 10 -25 21 -28 26 77 -103 37 -45
67 -86 67 -91 0 -39 382 -344 565 -451 122 -72 295 -145 327 -138 42 8 251
109 336 162 54 34 81 59 107 99 37 59 59 76 120 96 22 7 64 31 93 52 60 45
190 180 256 265 153 199 316 527 302 610 -3 18 -18 49 -34 70 -16 20 -31 46
-33 57 -3 12 -12 -5 -23 -45z m-2056 -574 c0 -3 -4 -8 -10 -11 -5 -3 -10 -1
-10 4 0 6 5 11 10 11 6 0 10 -2 10 -4z"/>
<path d="M3975 2370 c-3 -6 4 -9 19 -8 13 1 22 6 20 10 -7 11 -32 10 -39 -2z"/>
<path d="M5914 2253 c-49 -54 -105 -111 -124 -128 -19 -16 -50 -45 -70 -64
l-35 -33 42 31 c49 37 161 148 233 231 81 93 53 71 -46 -37z"/>
<path d="M3342 2944 c4 -21 22 -23 26 -1 2 10 -3 17 -13 17 -10 0 -15 -6 -13
-16z"/>
<path d="M7004 2955 c-9 -22 5 -38 22 -24 18 15 18 25 -1 33 -9 3 -18 -1 -21
-9z"/>
<path d="M2783 2954 c-8 -20 13 -42 27 -28 12 12 3 44 -11 44 -5 0 -12 -7 -16
-16z"/>
<path d="M7324 2949 c-10 -17 13 -36 27 -22 12 12 4 33 -11 33 -5 0 -12 -5
-16 -11z"/>
<path d="M4500 1059 l0 -91 71 4 c60 3 74 8 90 27 20 25 25 81 9 111 -13 24
-62 40 -121 40 l-49 0 0 -91z"/>
<path d="M5336 1135 c-53 -19 -83 -51 -97 -105 -23 -87 10 -163 86 -200 56
-27 101 -23 151 15 55 42 69 71 69 141 0 75 -20 108 -85 142 -51 25 -70 27
-124 7z"/>
<path d="M3660 1060 l0 -93 72 7 c81 7 115 24 124 61 17 69 -24 105 -126 113
l-70 5 0 -93z"/>
<path d="M3746 223 c-6 -14 -5 -15 5 -6 7 7 10 15 7 18 -3 3 -9 -2 -12 -12z"/>
<path d="M3757 173 c-4 -3 -7 -11 -7 -17 0 -6 5 -5 12 2 6 6 9 14 7 17 -3 3
-9 2 -12 -2z"/>
<path d="M3908 328 c-9 -5 -6 -8 9 -8 12 0 24 4 27 8 7 11 -19 11 -36 0z"/>
<path d="M3826 307 c3 -10 9 -15 12 -12 3 3 0 11 -7 18 -10 9 -11 8 -5 -6z"/>
<path d="M3740 295 c-7 -8 -17 -12 -24 -8 -7 4 -6 1 1 -9 7 -8 9 -19 5 -24 -4
-5 2 -1 14 9 11 9 24 14 28 10 11 -11 37 -12 30 -1 -3 5 -9 7 -12 4 -8 -9 -33
15 -26 25 9 15 -3 10 -16 -6z"/>
<path d="M6385 264 c9 -9 19 -13 23 -10 3 4 0 11 -8 16 -24 15 -33 11 -15 -6z"/>
<path d="M3831 186 c-12 -14 -12 -16 0 -11 8 2 20 1 28 -4 12 -8 12 -12 2 -25
-8 -9 -9 -16 -4 -16 5 0 17 15 28 33 18 31 18 32 0 17 -17 -14 -18 -13 -12 4
6 15 5 17 -7 7 -10 -9 -15 -9 -18 0 -2 7 -8 6 -17 -5z"/>
<path d="M3897 158 c-10 -17 -16 -33 -13 -35 2 -3 12 9 21 27 21 41 15 48 -8
8z"/>
<path d="M4154 59 c-14 -28 -23 -53 -20 -56 5 -5 30 39 46 82 16 42 2 28 -26
-26z"/>
<path d="M4177 50 c-9 -24 -15 -45 -12 -48 6 -6 36 70 32 81 -1 5 -11 -10 -20
-33z"/>
<path d="M4230 64 c0 -14 -3 -16 -9 -6 -6 10 -12 5 -21 -18 -13 -31 -9 -47 8
-36 6 3 8 16 5 29 -3 16 -2 18 5 8 8 -11 11 -9 17 8 4 13 4 25 1 28 -3 4 -6
-2 -6 -13z"/>
<path d="M6060 71 c0 -6 4 -13 10 -16 6 -3 7 1 4 9 -7 18 -14 21 -14 7z"/>
<path d="M6140 59 c0 -25 12 -59 20 -59 5 0 5 14 0 31 -11 36 -20 49 -20 28z"/>
<path d="M6017 30 c9 -17 21 -30 25 -30 5 0 -1 13 -14 30 -28 39 -34 39 -11 0z"/>
<path d="M6040 55 c0 -5 5 -17 10 -25 5 -8 10 -10 10 -5 0 6 -5 17 -10 25 -5
8 -10 11 -10 5z"/>
<path d="M4240 29 c-7 -11 -10 -23 -7 -25 2 -2 9 7 15 21 14 30 7 33 -8 4z"/>
<path d="M6110 43 c0 -19 11 -43 21 -43 13 0 11 14 -6 36 -8 10 -15 14 -15 7z"/>
<path d="M4266 25 c-9 -26 -7 -32 5 -12 6 10 9 21 6 23 -2 3 -7 -2 -11 -11z"/>
<path d="M4292 20 c-7 -11 -8 -20 -3 -20 9 0 24 30 18 36 -1 2 -8 -6 -15 -16z"/>
<path d="M4390 21 c-6 -12 -7 -21 -1 -21 10 0 24 30 17 37 -2 3 -9 -5 -16 -16z"/>
<path d="M4596 25 c-9 -26 -7 -32 5 -12 6 10 9 21 6 23 -2 3 -7 -2 -11 -11z"/>
<path d="M5830 35 c0 -5 5 -17 10 -25 5 -8 10 -11 10 -5 0 6 -5 17 -10 25 -5
8 -10 11 -10 5z"/>
<path d="M6080 28 c0 -9 5 -20 10 -23 13 -8 13 5 0 25 -8 13 -10 13 -10 -2z"/>
<path d="M4327 23 c-4 -3 -7 -11 -7 -17 0 -6 5 -5 12 2 6 6 9 14 7 17 -3 3 -9
2 -12 -2z"/>
<path d="M4701 14 c0 -11 3 -14 6 -6 3 7 2 16 -1 19 -3 4 -6 -2 -5 -13z"/>
<path d="M4831 14 c0 -11 3 -14 6 -6 3 7 2 16 -1 19 -3 4 -6 -2 -5 -13z"/>
<path d="M5870 21 c0 -6 4 -13 10 -16 6 -3 7 1 4 9 -7 18 -14 21 -14 7z"/>
<path d="M5990 21 c0 -5 5 -13 10 -16 6 -3 10 -2 10 4 0 5 -4 13 -10 16 -5 3
-10 2 -10 -4z"/>
<path d="M4445 10 c-3 -5 -1 -10 4 -10 6 0 11 5 11 10 0 6 -2 10 -4 10 -3 0
-8 -4 -11 -10z"/>
<path d="M5950 10 c0 -5 5 -10 11 -10 5 0 7 5 4 10 -3 6 -8 10 -11 10 -2 0 -4
-4 -4 -10z"/>
</g>
</svg>
